G75*
%MOIN*%
%OFA0B0*%
%FSLAX25Y25*%
%IPPOS*%
%LPD*%
%AMOC8*
5,1,8,0,0,1.08239X$1,22.5*
%
%ADD10C,0.00000*%
%ADD11R,0.04134X0.04252*%
%ADD12R,0.03150X0.03150*%
%ADD13R,0.03937X0.04331*%
%ADD14R,0.05000X0.02500*%
%ADD15R,0.05630X0.01811*%
%ADD16OC8,0.06600*%
%ADD17C,0.07400*%
%ADD18C,0.01575*%
%ADD19C,0.00984*%
%ADD20C,0.02953*%
%ADD21C,0.03169*%
D10*
X0001492Y0007398D02*
X0001492Y0074327D01*
X0001494Y0074479D01*
X0001500Y0074631D01*
X0001510Y0074783D01*
X0001523Y0074934D01*
X0001541Y0075085D01*
X0001562Y0075236D01*
X0001588Y0075386D01*
X0001617Y0075535D01*
X0001650Y0075684D01*
X0001687Y0075831D01*
X0001727Y0075978D01*
X0001772Y0076123D01*
X0001820Y0076267D01*
X0001872Y0076410D01*
X0001927Y0076552D01*
X0001986Y0076692D01*
X0002049Y0076831D01*
X0002115Y0076968D01*
X0002185Y0077103D01*
X0002258Y0077236D01*
X0002335Y0077367D01*
X0002415Y0077497D01*
X0002498Y0077624D01*
X0002584Y0077749D01*
X0002674Y0077872D01*
X0002767Y0077992D01*
X0002863Y0078110D01*
X0002962Y0078226D01*
X0003064Y0078339D01*
X0003168Y0078449D01*
X0003276Y0078557D01*
X0003386Y0078661D01*
X0003499Y0078763D01*
X0003615Y0078862D01*
X0003733Y0078958D01*
X0003853Y0079051D01*
X0003976Y0079141D01*
X0004101Y0079227D01*
X0004228Y0079310D01*
X0004358Y0079390D01*
X0004489Y0079467D01*
X0004622Y0079540D01*
X0004757Y0079610D01*
X0004894Y0079676D01*
X0005033Y0079739D01*
X0005173Y0079798D01*
X0005315Y0079853D01*
X0005458Y0079905D01*
X0005602Y0079953D01*
X0005747Y0079998D01*
X0005894Y0080038D01*
X0006041Y0080075D01*
X0006190Y0080108D01*
X0006339Y0080137D01*
X0006489Y0080163D01*
X0006640Y0080184D01*
X0006791Y0080202D01*
X0006942Y0080215D01*
X0007094Y0080225D01*
X0007246Y0080231D01*
X0007398Y0080233D01*
X0007398Y0080232D02*
X0074327Y0080232D01*
X0074327Y0080233D02*
X0074479Y0080231D01*
X0074631Y0080225D01*
X0074783Y0080215D01*
X0074934Y0080202D01*
X0075085Y0080184D01*
X0075236Y0080163D01*
X0075386Y0080137D01*
X0075535Y0080108D01*
X0075684Y0080075D01*
X0075831Y0080038D01*
X0075978Y0079998D01*
X0076123Y0079953D01*
X0076267Y0079905D01*
X0076410Y0079853D01*
X0076552Y0079798D01*
X0076692Y0079739D01*
X0076831Y0079676D01*
X0076968Y0079610D01*
X0077103Y0079540D01*
X0077236Y0079467D01*
X0077367Y0079390D01*
X0077497Y0079310D01*
X0077624Y0079227D01*
X0077749Y0079141D01*
X0077872Y0079051D01*
X0077992Y0078958D01*
X0078110Y0078862D01*
X0078226Y0078763D01*
X0078339Y0078661D01*
X0078449Y0078557D01*
X0078557Y0078449D01*
X0078661Y0078339D01*
X0078763Y0078226D01*
X0078862Y0078110D01*
X0078958Y0077992D01*
X0079051Y0077872D01*
X0079141Y0077749D01*
X0079227Y0077624D01*
X0079310Y0077497D01*
X0079390Y0077367D01*
X0079467Y0077236D01*
X0079540Y0077103D01*
X0079610Y0076968D01*
X0079676Y0076831D01*
X0079739Y0076692D01*
X0079798Y0076552D01*
X0079853Y0076410D01*
X0079905Y0076267D01*
X0079953Y0076123D01*
X0079998Y0075978D01*
X0080038Y0075831D01*
X0080075Y0075684D01*
X0080108Y0075535D01*
X0080137Y0075386D01*
X0080163Y0075236D01*
X0080184Y0075085D01*
X0080202Y0074934D01*
X0080215Y0074783D01*
X0080225Y0074631D01*
X0080231Y0074479D01*
X0080233Y0074327D01*
X0080232Y0074327D02*
X0080232Y0007398D01*
X0080233Y0007398D02*
X0080231Y0007246D01*
X0080225Y0007094D01*
X0080215Y0006942D01*
X0080202Y0006791D01*
X0080184Y0006640D01*
X0080163Y0006489D01*
X0080137Y0006339D01*
X0080108Y0006190D01*
X0080075Y0006041D01*
X0080038Y0005894D01*
X0079998Y0005747D01*
X0079953Y0005602D01*
X0079905Y0005458D01*
X0079853Y0005315D01*
X0079798Y0005173D01*
X0079739Y0005033D01*
X0079676Y0004894D01*
X0079610Y0004757D01*
X0079540Y0004622D01*
X0079467Y0004489D01*
X0079390Y0004358D01*
X0079310Y0004228D01*
X0079227Y0004101D01*
X0079141Y0003976D01*
X0079051Y0003853D01*
X0078958Y0003733D01*
X0078862Y0003615D01*
X0078763Y0003499D01*
X0078661Y0003386D01*
X0078557Y0003276D01*
X0078449Y0003168D01*
X0078339Y0003064D01*
X0078226Y0002962D01*
X0078110Y0002863D01*
X0077992Y0002767D01*
X0077872Y0002674D01*
X0077749Y0002584D01*
X0077624Y0002498D01*
X0077497Y0002415D01*
X0077367Y0002335D01*
X0077236Y0002258D01*
X0077103Y0002185D01*
X0076968Y0002115D01*
X0076831Y0002049D01*
X0076692Y0001986D01*
X0076552Y0001927D01*
X0076410Y0001872D01*
X0076267Y0001820D01*
X0076123Y0001772D01*
X0075978Y0001727D01*
X0075831Y0001687D01*
X0075684Y0001650D01*
X0075535Y0001617D01*
X0075386Y0001588D01*
X0075236Y0001562D01*
X0075085Y0001541D01*
X0074934Y0001523D01*
X0074783Y0001510D01*
X0074631Y0001500D01*
X0074479Y0001494D01*
X0074327Y0001492D01*
X0007398Y0001492D01*
X0007246Y0001494D01*
X0007094Y0001500D01*
X0006942Y0001510D01*
X0006791Y0001523D01*
X0006640Y0001541D01*
X0006489Y0001562D01*
X0006339Y0001588D01*
X0006190Y0001617D01*
X0006041Y0001650D01*
X0005894Y0001687D01*
X0005747Y0001727D01*
X0005602Y0001772D01*
X0005458Y0001820D01*
X0005315Y0001872D01*
X0005173Y0001927D01*
X0005033Y0001986D01*
X0004894Y0002049D01*
X0004757Y0002115D01*
X0004622Y0002185D01*
X0004489Y0002258D01*
X0004358Y0002335D01*
X0004228Y0002415D01*
X0004101Y0002498D01*
X0003976Y0002584D01*
X0003853Y0002674D01*
X0003733Y0002767D01*
X0003615Y0002863D01*
X0003499Y0002962D01*
X0003386Y0003064D01*
X0003276Y0003168D01*
X0003168Y0003276D01*
X0003064Y0003386D01*
X0002962Y0003499D01*
X0002863Y0003615D01*
X0002767Y0003733D01*
X0002674Y0003853D01*
X0002584Y0003976D01*
X0002498Y0004101D01*
X0002415Y0004228D01*
X0002335Y0004358D01*
X0002258Y0004489D01*
X0002185Y0004622D01*
X0002115Y0004757D01*
X0002049Y0004894D01*
X0001986Y0005033D01*
X0001927Y0005173D01*
X0001872Y0005315D01*
X0001820Y0005458D01*
X0001772Y0005602D01*
X0001727Y0005747D01*
X0001687Y0005894D01*
X0001650Y0006041D01*
X0001617Y0006190D01*
X0001588Y0006339D01*
X0001562Y0006489D01*
X0001541Y0006640D01*
X0001523Y0006791D01*
X0001510Y0006942D01*
X0001500Y0007094D01*
X0001494Y0007246D01*
X0001492Y0007398D01*
X0034362Y0015272D02*
X0034364Y0015433D01*
X0034370Y0015593D01*
X0034380Y0015754D01*
X0034394Y0015914D01*
X0034412Y0016074D01*
X0034433Y0016233D01*
X0034459Y0016392D01*
X0034489Y0016550D01*
X0034522Y0016707D01*
X0034560Y0016864D01*
X0034601Y0017019D01*
X0034646Y0017173D01*
X0034695Y0017326D01*
X0034748Y0017478D01*
X0034804Y0017629D01*
X0034865Y0017778D01*
X0034928Y0017926D01*
X0034996Y0018072D01*
X0035067Y0018216D01*
X0035141Y0018358D01*
X0035219Y0018499D01*
X0035301Y0018637D01*
X0035386Y0018774D01*
X0035474Y0018908D01*
X0035566Y0019040D01*
X0035661Y0019170D01*
X0035759Y0019298D01*
X0035860Y0019423D01*
X0035964Y0019545D01*
X0036071Y0019665D01*
X0036181Y0019782D01*
X0036294Y0019897D01*
X0036410Y0020008D01*
X0036529Y0020117D01*
X0036650Y0020222D01*
X0036774Y0020325D01*
X0036900Y0020425D01*
X0037028Y0020521D01*
X0037159Y0020614D01*
X0037293Y0020704D01*
X0037428Y0020791D01*
X0037566Y0020874D01*
X0037705Y0020954D01*
X0037847Y0021030D01*
X0037990Y0021103D01*
X0038135Y0021172D01*
X0038282Y0021238D01*
X0038430Y0021300D01*
X0038580Y0021358D01*
X0038731Y0021413D01*
X0038884Y0021464D01*
X0039038Y0021511D01*
X0039193Y0021554D01*
X0039349Y0021593D01*
X0039505Y0021629D01*
X0039663Y0021660D01*
X0039821Y0021688D01*
X0039980Y0021712D01*
X0040140Y0021732D01*
X0040300Y0021748D01*
X0040460Y0021760D01*
X0040621Y0021768D01*
X0040782Y0021772D01*
X0040942Y0021772D01*
X0041103Y0021768D01*
X0041264Y0021760D01*
X0041424Y0021748D01*
X0041584Y0021732D01*
X0041744Y0021712D01*
X0041903Y0021688D01*
X0042061Y0021660D01*
X0042219Y0021629D01*
X0042375Y0021593D01*
X0042531Y0021554D01*
X0042686Y0021511D01*
X0042840Y0021464D01*
X0042993Y0021413D01*
X0043144Y0021358D01*
X0043294Y0021300D01*
X0043442Y0021238D01*
X0043589Y0021172D01*
X0043734Y0021103D01*
X0043877Y0021030D01*
X0044019Y0020954D01*
X0044158Y0020874D01*
X0044296Y0020791D01*
X0044431Y0020704D01*
X0044565Y0020614D01*
X0044696Y0020521D01*
X0044824Y0020425D01*
X0044950Y0020325D01*
X0045074Y0020222D01*
X0045195Y0020117D01*
X0045314Y0020008D01*
X0045430Y0019897D01*
X0045543Y0019782D01*
X0045653Y0019665D01*
X0045760Y0019545D01*
X0045864Y0019423D01*
X0045965Y0019298D01*
X0046063Y0019170D01*
X0046158Y0019040D01*
X0046250Y0018908D01*
X0046338Y0018774D01*
X0046423Y0018637D01*
X0046505Y0018499D01*
X0046583Y0018358D01*
X0046657Y0018216D01*
X0046728Y0018072D01*
X0046796Y0017926D01*
X0046859Y0017778D01*
X0046920Y0017629D01*
X0046976Y0017478D01*
X0047029Y0017326D01*
X0047078Y0017173D01*
X0047123Y0017019D01*
X0047164Y0016864D01*
X0047202Y0016707D01*
X0047235Y0016550D01*
X0047265Y0016392D01*
X0047291Y0016233D01*
X0047312Y0016074D01*
X0047330Y0015914D01*
X0047344Y0015754D01*
X0047354Y0015593D01*
X0047360Y0015433D01*
X0047362Y0015272D01*
X0047360Y0015111D01*
X0047354Y0014951D01*
X0047344Y0014790D01*
X0047330Y0014630D01*
X0047312Y0014470D01*
X0047291Y0014311D01*
X0047265Y0014152D01*
X0047235Y0013994D01*
X0047202Y0013837D01*
X0047164Y0013680D01*
X0047123Y0013525D01*
X0047078Y0013371D01*
X0047029Y0013218D01*
X0046976Y0013066D01*
X0046920Y0012915D01*
X0046859Y0012766D01*
X0046796Y0012618D01*
X0046728Y0012472D01*
X0046657Y0012328D01*
X0046583Y0012186D01*
X0046505Y0012045D01*
X0046423Y0011907D01*
X0046338Y0011770D01*
X0046250Y0011636D01*
X0046158Y0011504D01*
X0046063Y0011374D01*
X0045965Y0011246D01*
X0045864Y0011121D01*
X0045760Y0010999D01*
X0045653Y0010879D01*
X0045543Y0010762D01*
X0045430Y0010647D01*
X0045314Y0010536D01*
X0045195Y0010427D01*
X0045074Y0010322D01*
X0044950Y0010219D01*
X0044824Y0010119D01*
X0044696Y0010023D01*
X0044565Y0009930D01*
X0044431Y0009840D01*
X0044296Y0009753D01*
X0044158Y0009670D01*
X0044019Y0009590D01*
X0043877Y0009514D01*
X0043734Y0009441D01*
X0043589Y0009372D01*
X0043442Y0009306D01*
X0043294Y0009244D01*
X0043144Y0009186D01*
X0042993Y0009131D01*
X0042840Y0009080D01*
X0042686Y0009033D01*
X0042531Y0008990D01*
X0042375Y0008951D01*
X0042219Y0008915D01*
X0042061Y0008884D01*
X0041903Y0008856D01*
X0041744Y0008832D01*
X0041584Y0008812D01*
X0041424Y0008796D01*
X0041264Y0008784D01*
X0041103Y0008776D01*
X0040942Y0008772D01*
X0040782Y0008772D01*
X0040621Y0008776D01*
X0040460Y0008784D01*
X0040300Y0008796D01*
X0040140Y0008812D01*
X0039980Y0008832D01*
X0039821Y0008856D01*
X0039663Y0008884D01*
X0039505Y0008915D01*
X0039349Y0008951D01*
X0039193Y0008990D01*
X0039038Y0009033D01*
X0038884Y0009080D01*
X0038731Y0009131D01*
X0038580Y0009186D01*
X0038430Y0009244D01*
X0038282Y0009306D01*
X0038135Y0009372D01*
X0037990Y0009441D01*
X0037847Y0009514D01*
X0037705Y0009590D01*
X0037566Y0009670D01*
X0037428Y0009753D01*
X0037293Y0009840D01*
X0037159Y0009930D01*
X0037028Y0010023D01*
X0036900Y0010119D01*
X0036774Y0010219D01*
X0036650Y0010322D01*
X0036529Y0010427D01*
X0036410Y0010536D01*
X0036294Y0010647D01*
X0036181Y0010762D01*
X0036071Y0010879D01*
X0035964Y0010999D01*
X0035860Y0011121D01*
X0035759Y0011246D01*
X0035661Y0011374D01*
X0035566Y0011504D01*
X0035474Y0011636D01*
X0035386Y0011770D01*
X0035301Y0011907D01*
X0035219Y0012045D01*
X0035141Y0012186D01*
X0035067Y0012328D01*
X0034996Y0012472D01*
X0034928Y0012618D01*
X0034865Y0012766D01*
X0034804Y0012915D01*
X0034748Y0013066D01*
X0034695Y0013218D01*
X0034646Y0013371D01*
X0034601Y0013525D01*
X0034560Y0013680D01*
X0034522Y0013837D01*
X0034489Y0013994D01*
X0034459Y0014152D01*
X0034433Y0014311D01*
X0034412Y0014470D01*
X0034394Y0014630D01*
X0034380Y0014790D01*
X0034370Y0014951D01*
X0034364Y0015111D01*
X0034362Y0015272D01*
X0034362Y0066453D02*
X0034364Y0066614D01*
X0034370Y0066774D01*
X0034380Y0066935D01*
X0034394Y0067095D01*
X0034412Y0067255D01*
X0034433Y0067414D01*
X0034459Y0067573D01*
X0034489Y0067731D01*
X0034522Y0067888D01*
X0034560Y0068045D01*
X0034601Y0068200D01*
X0034646Y0068354D01*
X0034695Y0068507D01*
X0034748Y0068659D01*
X0034804Y0068810D01*
X0034865Y0068959D01*
X0034928Y0069107D01*
X0034996Y0069253D01*
X0035067Y0069397D01*
X0035141Y0069539D01*
X0035219Y0069680D01*
X0035301Y0069818D01*
X0035386Y0069955D01*
X0035474Y0070089D01*
X0035566Y0070221D01*
X0035661Y0070351D01*
X0035759Y0070479D01*
X0035860Y0070604D01*
X0035964Y0070726D01*
X0036071Y0070846D01*
X0036181Y0070963D01*
X0036294Y0071078D01*
X0036410Y0071189D01*
X0036529Y0071298D01*
X0036650Y0071403D01*
X0036774Y0071506D01*
X0036900Y0071606D01*
X0037028Y0071702D01*
X0037159Y0071795D01*
X0037293Y0071885D01*
X0037428Y0071972D01*
X0037566Y0072055D01*
X0037705Y0072135D01*
X0037847Y0072211D01*
X0037990Y0072284D01*
X0038135Y0072353D01*
X0038282Y0072419D01*
X0038430Y0072481D01*
X0038580Y0072539D01*
X0038731Y0072594D01*
X0038884Y0072645D01*
X0039038Y0072692D01*
X0039193Y0072735D01*
X0039349Y0072774D01*
X0039505Y0072810D01*
X0039663Y0072841D01*
X0039821Y0072869D01*
X0039980Y0072893D01*
X0040140Y0072913D01*
X0040300Y0072929D01*
X0040460Y0072941D01*
X0040621Y0072949D01*
X0040782Y0072953D01*
X0040942Y0072953D01*
X0041103Y0072949D01*
X0041264Y0072941D01*
X0041424Y0072929D01*
X0041584Y0072913D01*
X0041744Y0072893D01*
X0041903Y0072869D01*
X0042061Y0072841D01*
X0042219Y0072810D01*
X0042375Y0072774D01*
X0042531Y0072735D01*
X0042686Y0072692D01*
X0042840Y0072645D01*
X0042993Y0072594D01*
X0043144Y0072539D01*
X0043294Y0072481D01*
X0043442Y0072419D01*
X0043589Y0072353D01*
X0043734Y0072284D01*
X0043877Y0072211D01*
X0044019Y0072135D01*
X0044158Y0072055D01*
X0044296Y0071972D01*
X0044431Y0071885D01*
X0044565Y0071795D01*
X0044696Y0071702D01*
X0044824Y0071606D01*
X0044950Y0071506D01*
X0045074Y0071403D01*
X0045195Y0071298D01*
X0045314Y0071189D01*
X0045430Y0071078D01*
X0045543Y0070963D01*
X0045653Y0070846D01*
X0045760Y0070726D01*
X0045864Y0070604D01*
X0045965Y0070479D01*
X0046063Y0070351D01*
X0046158Y0070221D01*
X0046250Y0070089D01*
X0046338Y0069955D01*
X0046423Y0069818D01*
X0046505Y0069680D01*
X0046583Y0069539D01*
X0046657Y0069397D01*
X0046728Y0069253D01*
X0046796Y0069107D01*
X0046859Y0068959D01*
X0046920Y0068810D01*
X0046976Y0068659D01*
X0047029Y0068507D01*
X0047078Y0068354D01*
X0047123Y0068200D01*
X0047164Y0068045D01*
X0047202Y0067888D01*
X0047235Y0067731D01*
X0047265Y0067573D01*
X0047291Y0067414D01*
X0047312Y0067255D01*
X0047330Y0067095D01*
X0047344Y0066935D01*
X0047354Y0066774D01*
X0047360Y0066614D01*
X0047362Y0066453D01*
X0047360Y0066292D01*
X0047354Y0066132D01*
X0047344Y0065971D01*
X0047330Y0065811D01*
X0047312Y0065651D01*
X0047291Y0065492D01*
X0047265Y0065333D01*
X0047235Y0065175D01*
X0047202Y0065018D01*
X0047164Y0064861D01*
X0047123Y0064706D01*
X0047078Y0064552D01*
X0047029Y0064399D01*
X0046976Y0064247D01*
X0046920Y0064096D01*
X0046859Y0063947D01*
X0046796Y0063799D01*
X0046728Y0063653D01*
X0046657Y0063509D01*
X0046583Y0063367D01*
X0046505Y0063226D01*
X0046423Y0063088D01*
X0046338Y0062951D01*
X0046250Y0062817D01*
X0046158Y0062685D01*
X0046063Y0062555D01*
X0045965Y0062427D01*
X0045864Y0062302D01*
X0045760Y0062180D01*
X0045653Y0062060D01*
X0045543Y0061943D01*
X0045430Y0061828D01*
X0045314Y0061717D01*
X0045195Y0061608D01*
X0045074Y0061503D01*
X0044950Y0061400D01*
X0044824Y0061300D01*
X0044696Y0061204D01*
X0044565Y0061111D01*
X0044431Y0061021D01*
X0044296Y0060934D01*
X0044158Y0060851D01*
X0044019Y0060771D01*
X0043877Y0060695D01*
X0043734Y0060622D01*
X0043589Y0060553D01*
X0043442Y0060487D01*
X0043294Y0060425D01*
X0043144Y0060367D01*
X0042993Y0060312D01*
X0042840Y0060261D01*
X0042686Y0060214D01*
X0042531Y0060171D01*
X0042375Y0060132D01*
X0042219Y0060096D01*
X0042061Y0060065D01*
X0041903Y0060037D01*
X0041744Y0060013D01*
X0041584Y0059993D01*
X0041424Y0059977D01*
X0041264Y0059965D01*
X0041103Y0059957D01*
X0040942Y0059953D01*
X0040782Y0059953D01*
X0040621Y0059957D01*
X0040460Y0059965D01*
X0040300Y0059977D01*
X0040140Y0059993D01*
X0039980Y0060013D01*
X0039821Y0060037D01*
X0039663Y0060065D01*
X0039505Y0060096D01*
X0039349Y0060132D01*
X0039193Y0060171D01*
X0039038Y0060214D01*
X0038884Y0060261D01*
X0038731Y0060312D01*
X0038580Y0060367D01*
X0038430Y0060425D01*
X0038282Y0060487D01*
X0038135Y0060553D01*
X0037990Y0060622D01*
X0037847Y0060695D01*
X0037705Y0060771D01*
X0037566Y0060851D01*
X0037428Y0060934D01*
X0037293Y0061021D01*
X0037159Y0061111D01*
X0037028Y0061204D01*
X0036900Y0061300D01*
X0036774Y0061400D01*
X0036650Y0061503D01*
X0036529Y0061608D01*
X0036410Y0061717D01*
X0036294Y0061828D01*
X0036181Y0061943D01*
X0036071Y0062060D01*
X0035964Y0062180D01*
X0035860Y0062302D01*
X0035759Y0062427D01*
X0035661Y0062555D01*
X0035566Y0062685D01*
X0035474Y0062817D01*
X0035386Y0062951D01*
X0035301Y0063088D01*
X0035219Y0063226D01*
X0035141Y0063367D01*
X0035067Y0063509D01*
X0034996Y0063653D01*
X0034928Y0063799D01*
X0034865Y0063947D01*
X0034804Y0064096D01*
X0034748Y0064247D01*
X0034695Y0064399D01*
X0034646Y0064552D01*
X0034601Y0064706D01*
X0034560Y0064861D01*
X0034522Y0065018D01*
X0034489Y0065175D01*
X0034459Y0065333D01*
X0034433Y0065492D01*
X0034412Y0065651D01*
X0034394Y0065811D01*
X0034380Y0065971D01*
X0034370Y0066132D01*
X0034364Y0066292D01*
X0034362Y0066453D01*
D11*
X0065961Y0062516D03*
X0072850Y0062516D03*
X0072850Y0042831D03*
X0065961Y0042831D03*
D12*
X0026098Y0066453D03*
X0020193Y0066453D03*
X0020193Y0072358D03*
X0026098Y0072358D03*
D13*
X0014681Y0073343D03*
X0007988Y0073343D03*
X0007988Y0065469D03*
X0014681Y0065469D03*
X0066059Y0034957D03*
X0072752Y0034957D03*
D14*
X0069406Y0049473D03*
X0069406Y0052673D03*
X0069406Y0055873D03*
D15*
X0055803Y0049819D03*
X0055803Y0047260D03*
X0055803Y0044701D03*
X0055803Y0042142D03*
X0055803Y0039583D03*
X0055803Y0037024D03*
X0055803Y0034465D03*
X0055803Y0031906D03*
X0025921Y0031906D03*
X0025921Y0034465D03*
X0025921Y0037024D03*
X0025921Y0039583D03*
X0025921Y0042142D03*
X0025921Y0044701D03*
X0025921Y0047260D03*
X0025921Y0049819D03*
D16*
X0013303Y0052673D03*
X0013303Y0044799D03*
X0013303Y0036925D03*
X0013303Y0029051D03*
D17*
X0058216Y0009004D03*
X0065287Y0016075D03*
X0072358Y0023146D03*
D18*
X0066059Y0029445D01*
X0066059Y0034957D01*
X0063992Y0037024D01*
X0055803Y0037024D01*
X0055803Y0034465D02*
X0061039Y0034465D01*
X0062516Y0032988D01*
X0062516Y0018846D01*
X0058216Y0009004D02*
X0058216Y0031906D01*
X0055803Y0031906D01*
X0065961Y0042831D02*
X0065961Y0046028D01*
X0069406Y0049473D01*
X0069406Y0052673D02*
X0074327Y0052673D01*
X0078264Y0056610D01*
X0078264Y0065469D01*
X0065469Y0078264D01*
X0012909Y0078264D01*
X0007988Y0073343D01*
X0014681Y0073343D02*
X0014681Y0072358D01*
X0020193Y0072358D01*
X0020193Y0066453D02*
X0014681Y0066453D01*
X0014681Y0065469D01*
X0025921Y0049819D02*
X0032102Y0049819D01*
X0033972Y0051689D01*
X0032496Y0047260D02*
X0025921Y0047260D01*
X0025921Y0044701D02*
X0013402Y0044701D01*
X0013303Y0044799D01*
X0018520Y0042142D02*
X0025921Y0042142D01*
X0032496Y0047260D02*
X0033972Y0045783D01*
X0018520Y0042142D02*
X0013303Y0036925D01*
X0055803Y0047260D02*
X0061531Y0047260D01*
X0065961Y0042831D01*
X0055803Y0049819D02*
X0061857Y0055873D01*
X0069406Y0055873D01*
X0065961Y0059318D01*
X0065961Y0062516D01*
D19*
X0055706Y0004440D02*
X0004233Y0004440D01*
X0003728Y0004946D02*
X0004946Y0003728D01*
X0006537Y0003069D01*
X0007398Y0002984D01*
X0074327Y0002984D01*
X0075188Y0003069D01*
X0076779Y0003728D01*
X0077996Y0004946D01*
X0078655Y0006537D01*
X0078740Y0007398D01*
X0078740Y0053885D01*
X0075264Y0050409D01*
X0073382Y0050409D01*
X0073382Y0047612D01*
X0072517Y0046747D01*
X0069881Y0046747D01*
X0069103Y0045969D01*
X0069504Y0045568D01*
X0069504Y0040093D01*
X0068639Y0039228D01*
X0064989Y0039228D01*
X0065619Y0038598D01*
X0068639Y0038598D01*
X0069504Y0037734D01*
X0069504Y0032180D01*
X0068639Y0031315D01*
X0068323Y0031315D01*
X0068323Y0030383D01*
X0070660Y0028045D01*
X0071329Y0028322D01*
X0073388Y0028322D01*
X0075290Y0027534D01*
X0076747Y0026078D01*
X0077535Y0024175D01*
X0077535Y0022116D01*
X0076747Y0020213D01*
X0075290Y0018757D01*
X0073388Y0017969D01*
X0071329Y0017969D01*
X0069852Y0018581D01*
X0070464Y0017104D01*
X0070464Y0015045D01*
X0069676Y0013142D01*
X0068219Y0011686D01*
X0066317Y0010898D01*
X0064258Y0010898D01*
X0062781Y0011510D01*
X0063392Y0010033D01*
X0063392Y0007974D01*
X0062604Y0006071D01*
X0061148Y0004615D01*
X0059246Y0003827D01*
X0057186Y0003827D01*
X0055284Y0004615D01*
X0053828Y0006071D01*
X0053040Y0007974D01*
X0053040Y0010033D01*
X0053828Y0011936D01*
X0055284Y0013392D01*
X0055952Y0013669D01*
X0055952Y0029524D01*
X0052377Y0029524D01*
X0051512Y0030388D01*
X0051512Y0051336D01*
X0052377Y0052201D01*
X0054984Y0052201D01*
X0059594Y0056811D01*
X0060920Y0058137D01*
X0063940Y0058137D01*
X0063697Y0058380D01*
X0063697Y0058913D01*
X0063282Y0058913D01*
X0062417Y0059778D01*
X0062417Y0065253D01*
X0063282Y0066118D01*
X0068639Y0066118D01*
X0069504Y0065253D01*
X0069504Y0059778D01*
X0069103Y0059377D01*
X0069881Y0058600D01*
X0072517Y0058600D01*
X0073382Y0057735D01*
X0073382Y0054937D01*
X0073389Y0054937D01*
X0076000Y0057548D01*
X0076000Y0064531D01*
X0064531Y0076000D01*
X0032655Y0076000D01*
X0033096Y0074936D01*
X0033096Y0073718D01*
X0032630Y0072593D01*
X0031769Y0071732D01*
X0030644Y0071266D01*
X0029427Y0071266D01*
X0029254Y0071338D01*
X0029150Y0071234D01*
X0029150Y0070172D01*
X0028383Y0069406D01*
X0029150Y0068639D01*
X0029150Y0067577D01*
X0029740Y0066987D01*
X0030570Y0066157D01*
X0031020Y0065072D01*
X0031020Y0063385D01*
X0031128Y0063125D01*
X0031128Y0061907D01*
X0030662Y0060782D01*
X0029801Y0059921D01*
X0028676Y0059455D01*
X0027458Y0059455D01*
X0026333Y0059921D01*
X0025472Y0060782D01*
X0025006Y0061907D01*
X0025006Y0063125D01*
X0025078Y0063297D01*
X0024974Y0063402D01*
X0023912Y0063402D01*
X0023146Y0064168D01*
X0022379Y0063402D01*
X0018126Y0063402D01*
X0018126Y0062692D01*
X0017261Y0061827D01*
X0012101Y0061827D01*
X0011335Y0062593D01*
X0010568Y0061827D01*
X0008522Y0061827D01*
X0008382Y0061686D01*
X0008382Y0038148D01*
X0008527Y0038003D01*
X0008527Y0038904D01*
X0010485Y0040862D01*
X0008527Y0042821D01*
X0008527Y0046778D01*
X0011325Y0049576D01*
X0015282Y0049576D01*
X0017893Y0046965D01*
X0021630Y0046965D01*
X0021630Y0051336D01*
X0022495Y0052201D01*
X0029348Y0052201D01*
X0029466Y0052083D01*
X0030912Y0052083D01*
X0030912Y0052298D01*
X0031378Y0053423D01*
X0032239Y0054284D01*
X0033364Y0054750D01*
X0034581Y0054750D01*
X0035706Y0054284D01*
X0036567Y0053423D01*
X0037033Y0052298D01*
X0037033Y0051080D01*
X0036567Y0049955D01*
X0035706Y0049094D01*
X0034842Y0048736D01*
X0035706Y0048378D01*
X0036567Y0047517D01*
X0037033Y0046392D01*
X0037033Y0045175D01*
X0036567Y0044050D01*
X0035706Y0043189D01*
X0034581Y0042723D01*
X0033364Y0042723D01*
X0032239Y0043189D01*
X0031378Y0044050D01*
X0030986Y0044996D01*
X0030213Y0044996D01*
X0030213Y0035507D01*
X0029348Y0034642D01*
X0022495Y0034642D01*
X0021630Y0035507D01*
X0021630Y0039878D01*
X0019457Y0039878D01*
X0018080Y0038500D01*
X0018080Y0034947D01*
X0016121Y0032988D01*
X0018080Y0031030D01*
X0018080Y0027073D01*
X0015282Y0024275D01*
X0011325Y0024275D01*
X0008527Y0027073D01*
X0008527Y0029652D01*
X0002984Y0035194D01*
X0002984Y0007398D01*
X0003069Y0006537D01*
X0003728Y0004946D01*
X0003530Y0005423D02*
X0054476Y0005423D01*
X0053689Y0006406D02*
X0043334Y0006406D01*
X0042480Y0006095D02*
X0045521Y0007202D01*
X0045521Y0007202D01*
X0048000Y0009282D01*
X0048000Y0009282D01*
X0049618Y0012085D01*
X0050180Y0015272D01*
X0049618Y0018459D01*
X0048000Y0021261D01*
X0045521Y0023341D01*
X0042480Y0024448D01*
X0039244Y0024448D01*
X0036203Y0023341D01*
X0033724Y0021261D01*
X0032106Y0018459D01*
X0032106Y0018459D01*
X0031544Y0015272D01*
X0031544Y0015272D01*
X0032106Y0012085D01*
X0032106Y0012085D01*
X0033724Y0009282D01*
X0036203Y0007202D01*
X0036203Y0007202D01*
X0039244Y0006095D01*
X0040085Y0006095D01*
X0042480Y0006095D01*
X0045744Y0007389D02*
X0053282Y0007389D01*
X0053040Y0008371D02*
X0046915Y0008371D01*
X0048000Y0009282D02*
X0048000Y0009282D01*
X0048042Y0009354D02*
X0053040Y0009354D01*
X0053166Y0010337D02*
X0048609Y0010337D01*
X0049177Y0011320D02*
X0053573Y0011320D01*
X0054195Y0012303D02*
X0049657Y0012303D01*
X0049618Y0012085D02*
X0049618Y0012085D01*
X0049830Y0013285D02*
X0055177Y0013285D01*
X0055952Y0014268D02*
X0050003Y0014268D01*
X0050176Y0015251D02*
X0055952Y0015251D01*
X0055952Y0016234D02*
X0050011Y0016234D01*
X0049837Y0017216D02*
X0055952Y0017216D01*
X0055952Y0018199D02*
X0049664Y0018199D01*
X0049201Y0019182D02*
X0055952Y0019182D01*
X0055952Y0020165D02*
X0048633Y0020165D01*
X0048066Y0021147D02*
X0055952Y0021147D01*
X0055952Y0022130D02*
X0046964Y0022130D01*
X0045793Y0023113D02*
X0055952Y0023113D01*
X0055952Y0024096D02*
X0043448Y0024096D01*
X0045521Y0023341D02*
X0045521Y0023341D01*
X0051908Y0029992D02*
X0029816Y0029992D01*
X0030213Y0030388D02*
X0030213Y0033423D01*
X0029348Y0034287D01*
X0022495Y0034287D01*
X0021630Y0033423D01*
X0021630Y0030388D01*
X0022495Y0029524D01*
X0029348Y0029524D01*
X0030213Y0030388D01*
X0030213Y0030975D02*
X0051512Y0030975D01*
X0051512Y0031958D02*
X0030213Y0031958D01*
X0030213Y0032941D02*
X0051512Y0032941D01*
X0051512Y0033923D02*
X0029712Y0033923D01*
X0029612Y0034906D02*
X0051512Y0034906D01*
X0051512Y0035889D02*
X0030213Y0035889D01*
X0030213Y0036872D02*
X0051512Y0036872D01*
X0051512Y0037854D02*
X0030213Y0037854D01*
X0030213Y0038837D02*
X0051512Y0038837D01*
X0051512Y0039820D02*
X0030213Y0039820D01*
X0030213Y0040803D02*
X0051512Y0040803D01*
X0051512Y0041785D02*
X0030213Y0041785D01*
X0030213Y0042768D02*
X0033254Y0042768D01*
X0034691Y0042768D02*
X0051512Y0042768D01*
X0051512Y0043751D02*
X0036268Y0043751D01*
X0036850Y0044734D02*
X0051512Y0044734D01*
X0051512Y0045716D02*
X0037033Y0045716D01*
X0036906Y0046699D02*
X0051512Y0046699D01*
X0051512Y0047682D02*
X0036402Y0047682D01*
X0035014Y0048665D02*
X0051512Y0048665D01*
X0051512Y0049648D02*
X0036259Y0049648D01*
X0036847Y0050630D02*
X0051512Y0050630D01*
X0051789Y0051613D02*
X0037033Y0051613D01*
X0036910Y0052596D02*
X0055379Y0052596D01*
X0056361Y0053579D02*
X0036411Y0053579D01*
X0035036Y0054561D02*
X0057344Y0054561D01*
X0058327Y0055544D02*
X0008382Y0055544D01*
X0008382Y0056527D02*
X0059310Y0056527D01*
X0060292Y0057510D02*
X0043121Y0057510D01*
X0042480Y0057276D02*
X0045521Y0058383D01*
X0045521Y0058383D01*
X0048000Y0060463D01*
X0048000Y0060463D01*
X0048000Y0060463D01*
X0049618Y0063266D01*
X0050180Y0066453D01*
X0049618Y0069640D01*
X0048000Y0072442D01*
X0048000Y0072442D01*
X0045521Y0074522D01*
X0042480Y0075629D01*
X0039244Y0075629D01*
X0036203Y0074522D01*
X0033724Y0072442D01*
X0032106Y0069640D01*
X0031544Y0066453D01*
X0032106Y0063266D01*
X0033724Y0060463D01*
X0036203Y0058383D01*
X0036203Y0058383D01*
X0039244Y0057276D01*
X0040085Y0057276D01*
X0042480Y0057276D01*
X0045651Y0058492D02*
X0063697Y0058492D01*
X0062720Y0059475D02*
X0046823Y0059475D01*
X0047994Y0060458D02*
X0062417Y0060458D01*
X0062417Y0061441D02*
X0048564Y0061441D01*
X0049132Y0062423D02*
X0062417Y0062423D01*
X0062417Y0063406D02*
X0049643Y0063406D01*
X0049618Y0063266D02*
X0049618Y0063266D01*
X0049816Y0064389D02*
X0062417Y0064389D01*
X0062536Y0065372D02*
X0049990Y0065372D01*
X0050163Y0066355D02*
X0074176Y0066355D01*
X0073194Y0067337D02*
X0050024Y0067337D01*
X0050180Y0066453D02*
X0050180Y0066453D01*
X0049851Y0068320D02*
X0072211Y0068320D01*
X0071228Y0069303D02*
X0049678Y0069303D01*
X0049618Y0069640D02*
X0049618Y0069640D01*
X0049245Y0070286D02*
X0070245Y0070286D01*
X0069262Y0071268D02*
X0048678Y0071268D01*
X0048110Y0072251D02*
X0068280Y0072251D01*
X0067297Y0073234D02*
X0047057Y0073234D01*
X0045886Y0074217D02*
X0066314Y0074217D01*
X0065331Y0075199D02*
X0043661Y0075199D01*
X0045521Y0074522D02*
X0045521Y0074522D01*
X0038063Y0075199D02*
X0032987Y0075199D01*
X0033096Y0074217D02*
X0035839Y0074217D01*
X0036203Y0074522D02*
X0036203Y0074522D01*
X0034668Y0073234D02*
X0032896Y0073234D01*
X0033724Y0072442D02*
X0033724Y0072442D01*
X0033724Y0072442D01*
X0033614Y0072251D02*
X0032288Y0072251D01*
X0033047Y0071268D02*
X0030649Y0071268D01*
X0029421Y0071268D02*
X0029184Y0071268D01*
X0029150Y0070286D02*
X0032479Y0070286D01*
X0032047Y0069303D02*
X0028486Y0069303D01*
X0029150Y0068320D02*
X0031874Y0068320D01*
X0031700Y0067337D02*
X0029390Y0067337D01*
X0030372Y0066355D02*
X0031562Y0066355D01*
X0031735Y0065372D02*
X0030895Y0065372D01*
X0031020Y0064389D02*
X0031908Y0064389D01*
X0032081Y0063406D02*
X0031020Y0063406D01*
X0031128Y0062423D02*
X0032593Y0062423D01*
X0033160Y0061441D02*
X0030934Y0061441D01*
X0030337Y0060458D02*
X0033731Y0060458D01*
X0033724Y0060463D02*
X0033724Y0060463D01*
X0034902Y0059475D02*
X0028724Y0059475D01*
X0027410Y0059475D02*
X0008382Y0059475D01*
X0008382Y0058492D02*
X0036073Y0058492D01*
X0038603Y0057510D02*
X0008382Y0057510D01*
X0008382Y0060458D02*
X0025796Y0060458D01*
X0025199Y0061441D02*
X0008382Y0061441D01*
X0011165Y0062423D02*
X0011504Y0062423D01*
X0017858Y0062423D02*
X0025006Y0062423D01*
X0023907Y0063406D02*
X0022384Y0063406D01*
X0031534Y0053579D02*
X0008382Y0053579D01*
X0008382Y0054561D02*
X0032909Y0054561D01*
X0031035Y0052596D02*
X0008382Y0052596D01*
X0008382Y0051613D02*
X0021907Y0051613D01*
X0021630Y0050630D02*
X0008382Y0050630D01*
X0008382Y0049648D02*
X0021630Y0049648D01*
X0021630Y0048665D02*
X0016192Y0048665D01*
X0017175Y0047682D02*
X0021630Y0047682D01*
X0021630Y0039820D02*
X0019399Y0039820D01*
X0018417Y0038837D02*
X0021630Y0038837D01*
X0021630Y0037854D02*
X0018080Y0037854D01*
X0018080Y0036872D02*
X0021630Y0036872D01*
X0021630Y0035889D02*
X0018080Y0035889D01*
X0018039Y0034906D02*
X0022230Y0034906D01*
X0022131Y0033923D02*
X0017056Y0033923D01*
X0016169Y0032941D02*
X0021630Y0032941D01*
X0021630Y0031958D02*
X0017151Y0031958D01*
X0018080Y0030975D02*
X0021630Y0030975D01*
X0022026Y0029992D02*
X0018080Y0029992D01*
X0018080Y0029009D02*
X0055952Y0029009D01*
X0055952Y0028027D02*
X0018080Y0028027D01*
X0018051Y0027044D02*
X0055952Y0027044D01*
X0055952Y0026061D02*
X0017068Y0026061D01*
X0016085Y0025078D02*
X0055952Y0025078D01*
X0062516Y0018846D02*
X0065287Y0016075D01*
X0068836Y0012303D02*
X0078740Y0012303D01*
X0078740Y0013285D02*
X0069735Y0013285D01*
X0070142Y0014268D02*
X0078740Y0014268D01*
X0078740Y0015251D02*
X0070464Y0015251D01*
X0070464Y0016234D02*
X0078740Y0016234D01*
X0078740Y0017216D02*
X0070417Y0017216D01*
X0070774Y0018199D02*
X0070010Y0018199D01*
X0073943Y0018199D02*
X0078740Y0018199D01*
X0078740Y0019182D02*
X0075715Y0019182D01*
X0076698Y0020165D02*
X0078740Y0020165D01*
X0078740Y0021147D02*
X0077133Y0021147D01*
X0077535Y0022130D02*
X0078740Y0022130D01*
X0078740Y0023113D02*
X0077535Y0023113D01*
X0077535Y0024096D02*
X0078740Y0024096D01*
X0078740Y0025078D02*
X0077161Y0025078D01*
X0076753Y0026061D02*
X0078740Y0026061D01*
X0078740Y0027044D02*
X0075780Y0027044D01*
X0074101Y0028027D02*
X0078740Y0028027D01*
X0078740Y0029009D02*
X0069696Y0029009D01*
X0068713Y0029992D02*
X0078740Y0029992D01*
X0078740Y0030975D02*
X0068323Y0030975D01*
X0069282Y0031958D02*
X0078740Y0031958D01*
X0078740Y0032941D02*
X0069504Y0032941D01*
X0069504Y0033923D02*
X0078740Y0033923D01*
X0078740Y0034906D02*
X0069504Y0034906D01*
X0069504Y0035889D02*
X0078740Y0035889D01*
X0078740Y0036872D02*
X0069504Y0036872D01*
X0069383Y0037854D02*
X0078740Y0037854D01*
X0078740Y0038837D02*
X0065380Y0038837D01*
X0069231Y0039820D02*
X0078740Y0039820D01*
X0078740Y0040803D02*
X0069504Y0040803D01*
X0069504Y0041785D02*
X0078740Y0041785D01*
X0078740Y0042768D02*
X0069504Y0042768D01*
X0069504Y0043751D02*
X0078740Y0043751D01*
X0078740Y0044734D02*
X0069504Y0044734D01*
X0069356Y0045716D02*
X0078740Y0045716D01*
X0078740Y0046699D02*
X0069833Y0046699D01*
X0073382Y0047682D02*
X0078740Y0047682D01*
X0078740Y0048665D02*
X0073382Y0048665D01*
X0073382Y0049648D02*
X0078740Y0049648D01*
X0078740Y0050630D02*
X0075485Y0050630D01*
X0076468Y0051613D02*
X0078740Y0051613D01*
X0078740Y0052596D02*
X0077451Y0052596D01*
X0078434Y0053579D02*
X0078740Y0053579D01*
X0074979Y0056527D02*
X0073382Y0056527D01*
X0073382Y0057510D02*
X0075962Y0057510D01*
X0076000Y0058492D02*
X0072624Y0058492D01*
X0073382Y0055544D02*
X0073996Y0055544D01*
X0076000Y0059475D02*
X0069201Y0059475D01*
X0069504Y0060458D02*
X0076000Y0060458D01*
X0076000Y0061441D02*
X0069504Y0061441D01*
X0069504Y0062423D02*
X0076000Y0062423D01*
X0076000Y0063406D02*
X0069504Y0063406D01*
X0069504Y0064389D02*
X0076000Y0064389D01*
X0075159Y0065372D02*
X0069385Y0065372D01*
X0031677Y0043751D02*
X0030213Y0043751D01*
X0030213Y0044734D02*
X0031094Y0044734D01*
X0038276Y0024096D02*
X0002984Y0024096D01*
X0002984Y0025078D02*
X0010521Y0025078D01*
X0009538Y0026061D02*
X0002984Y0026061D01*
X0002984Y0027044D02*
X0008556Y0027044D01*
X0008527Y0028027D02*
X0002984Y0028027D01*
X0002984Y0029009D02*
X0008527Y0029009D01*
X0008186Y0029992D02*
X0002984Y0029992D01*
X0002984Y0030975D02*
X0007203Y0030975D01*
X0006221Y0031958D02*
X0002984Y0031958D01*
X0002984Y0032941D02*
X0005238Y0032941D01*
X0004255Y0033923D02*
X0002984Y0033923D01*
X0002984Y0034906D02*
X0003272Y0034906D01*
X0008382Y0038837D02*
X0008527Y0038837D01*
X0008382Y0039820D02*
X0009443Y0039820D01*
X0010426Y0040803D02*
X0008382Y0040803D01*
X0008382Y0041785D02*
X0009562Y0041785D01*
X0008579Y0042768D02*
X0008382Y0042768D01*
X0008382Y0043751D02*
X0008527Y0043751D01*
X0008527Y0044734D02*
X0008382Y0044734D01*
X0008382Y0045716D02*
X0008527Y0045716D01*
X0008527Y0046699D02*
X0008382Y0046699D01*
X0008382Y0047682D02*
X0009431Y0047682D01*
X0010414Y0048665D02*
X0008382Y0048665D01*
X0002984Y0023113D02*
X0035931Y0023113D01*
X0036203Y0023341D02*
X0036203Y0023341D01*
X0034760Y0022130D02*
X0002984Y0022130D01*
X0002984Y0021147D02*
X0033659Y0021147D01*
X0033724Y0021261D02*
X0033724Y0021261D01*
X0033724Y0021261D01*
X0033091Y0020165D02*
X0002984Y0020165D01*
X0002984Y0019182D02*
X0032524Y0019182D01*
X0032060Y0018199D02*
X0002984Y0018199D01*
X0002984Y0017216D02*
X0031887Y0017216D01*
X0031714Y0016234D02*
X0002984Y0016234D01*
X0002984Y0015251D02*
X0031548Y0015251D01*
X0031721Y0014268D02*
X0002984Y0014268D01*
X0002984Y0013285D02*
X0031895Y0013285D01*
X0032068Y0012303D02*
X0002984Y0012303D01*
X0002984Y0011320D02*
X0032548Y0011320D01*
X0033115Y0010337D02*
X0002984Y0010337D01*
X0002984Y0009354D02*
X0033683Y0009354D01*
X0033724Y0009282D02*
X0033724Y0009282D01*
X0034810Y0008371D02*
X0002984Y0008371D01*
X0002985Y0007389D02*
X0035981Y0007389D01*
X0038391Y0006406D02*
X0003123Y0006406D01*
X0005598Y0003458D02*
X0076126Y0003458D01*
X0077491Y0004440D02*
X0060726Y0004440D01*
X0061956Y0005423D02*
X0078194Y0005423D01*
X0078601Y0006406D02*
X0062743Y0006406D01*
X0063150Y0007389D02*
X0078739Y0007389D01*
X0078740Y0008371D02*
X0063392Y0008371D01*
X0063392Y0009354D02*
X0078740Y0009354D01*
X0078740Y0010337D02*
X0063267Y0010337D01*
X0063240Y0011320D02*
X0062860Y0011320D01*
X0067335Y0011320D02*
X0078740Y0011320D01*
X0050180Y0015272D02*
X0050180Y0015272D01*
D20*
X0013303Y0029051D02*
X0005429Y0036925D01*
X0005429Y0062909D01*
X0007988Y0065469D01*
X0007988Y0073343D01*
X0026098Y0072358D02*
X0028067Y0074327D01*
X0030035Y0074327D01*
X0026098Y0066453D02*
X0028067Y0064484D01*
X0028067Y0062516D01*
D21*
X0028067Y0062516D03*
X0033972Y0051689D03*
X0033972Y0045783D03*
X0030035Y0074327D03*
M02*
