G75*
%MOIN*%
%OFA0B0*%
%FSLAX25Y25*%
%IPPOS*%
%LPD*%
%AMOC8*
5,1,8,0,0,1.08239X$1,22.5*
%
%ADD10C,0.00300*%
%ADD11R,0.00984X0.00984*%
%ADD12C,0.00600*%
%ADD13C,0.00800*%
%ADD14C,0.00500*%
D10*
X0052625Y0015532D02*
X0053633Y0016540D01*
X0054306Y0016540D01*
X0055650Y0015196D01*
X0055650Y0014524D01*
X0054642Y0013515D01*
X0052625Y0015532D01*
X0055012Y0017247D02*
X0055012Y0017919D01*
X0055684Y0018591D01*
X0056356Y0018591D01*
X0056356Y0015902D01*
X0057029Y0015902D01*
X0057701Y0016574D01*
X0057701Y0017247D01*
X0056356Y0018591D01*
X0055012Y0017247D02*
X0056356Y0015902D01*
X0060211Y0019757D02*
X0060883Y0019757D01*
X0061556Y0020429D01*
X0061556Y0021101D01*
X0062598Y0021471D02*
X0063942Y0022816D01*
X0062598Y0021471D02*
X0060581Y0023488D01*
X0060211Y0022446D02*
X0059539Y0022446D01*
X0058867Y0021774D01*
X0058867Y0021101D01*
X0060211Y0019757D01*
X0066117Y0025662D02*
X0064772Y0027007D01*
X0064772Y0027679D01*
X0065444Y0028351D01*
X0066117Y0028351D01*
X0066823Y0029058D02*
X0067159Y0028721D01*
X0067831Y0028721D01*
X0068503Y0029394D01*
X0069176Y0029394D01*
X0069512Y0029058D01*
X0069512Y0028385D01*
X0068840Y0027713D01*
X0068167Y0027713D01*
X0067461Y0027007D02*
X0067461Y0026335D01*
X0066789Y0025662D01*
X0066117Y0025662D01*
X0066823Y0029058D02*
X0066823Y0029730D01*
X0067495Y0030402D01*
X0068167Y0030402D01*
X0063350Y0033138D02*
X0060498Y0033138D01*
X0060498Y0034564D01*
X0060973Y0035040D01*
X0061924Y0035040D01*
X0062399Y0034564D01*
X0062399Y0033138D01*
X0062399Y0034089D02*
X0063350Y0035040D01*
X0062875Y0036038D02*
X0063350Y0036514D01*
X0063350Y0037464D01*
X0062875Y0037940D01*
X0061924Y0037940D01*
X0061449Y0037464D01*
X0061449Y0036989D01*
X0061924Y0036038D01*
X0060498Y0036038D01*
X0060498Y0037940D01*
X0060973Y0041012D02*
X0062875Y0041012D01*
X0063350Y0041488D01*
X0063350Y0042438D01*
X0062875Y0042914D01*
X0063350Y0043912D02*
X0061449Y0045814D01*
X0060973Y0045814D01*
X0060498Y0045338D01*
X0060498Y0044388D01*
X0060973Y0043912D01*
X0060973Y0042914D02*
X0060498Y0042438D01*
X0060498Y0041488D01*
X0060973Y0041012D01*
X0063350Y0043912D02*
X0063350Y0045814D01*
X0059013Y0054792D02*
X0058062Y0054792D01*
X0057587Y0055267D01*
X0059488Y0057168D01*
X0059488Y0055267D01*
X0059013Y0054792D01*
X0057587Y0055267D02*
X0057587Y0057168D01*
X0058062Y0057644D01*
X0059013Y0057644D01*
X0059488Y0057168D01*
X0056588Y0056218D02*
X0054686Y0056218D01*
X0056112Y0057644D01*
X0056112Y0054792D01*
X0053688Y0055267D02*
X0053688Y0057168D01*
X0051786Y0055267D01*
X0052262Y0054792D01*
X0053212Y0054792D01*
X0053688Y0055267D01*
X0053688Y0057168D02*
X0053212Y0057644D01*
X0052262Y0057644D01*
X0051786Y0057168D01*
X0051786Y0055267D01*
X0050788Y0055267D02*
X0050788Y0056218D01*
X0050312Y0056693D01*
X0049837Y0056693D01*
X0048886Y0056218D01*
X0048886Y0057644D01*
X0050788Y0057644D01*
X0050788Y0055267D02*
X0050312Y0054792D01*
X0049362Y0054792D01*
X0048886Y0055267D01*
X0060498Y0061173D02*
X0060973Y0060697D01*
X0062875Y0060697D01*
X0063350Y0061173D01*
X0063350Y0062123D01*
X0062875Y0062599D01*
X0063350Y0063597D02*
X0063350Y0065499D01*
X0063350Y0064548D02*
X0060498Y0064548D01*
X0061449Y0063597D01*
X0060973Y0062599D02*
X0060498Y0062123D01*
X0060498Y0061173D01*
X0075262Y0061351D02*
X0077163Y0061351D01*
X0078114Y0060400D01*
X0077163Y0059450D01*
X0075262Y0059450D01*
X0075262Y0058451D02*
X0075262Y0056550D01*
X0076688Y0056550D01*
X0076212Y0057500D01*
X0076212Y0057976D01*
X0076688Y0058451D01*
X0077638Y0058451D01*
X0078114Y0057976D01*
X0078114Y0057025D01*
X0077638Y0056550D01*
X0077638Y0052651D02*
X0077163Y0052651D01*
X0076688Y0052175D01*
X0076688Y0051700D01*
X0076688Y0052175D02*
X0076212Y0052651D01*
X0075737Y0052651D01*
X0075262Y0052175D01*
X0075262Y0051225D01*
X0075737Y0050749D01*
X0075262Y0049751D02*
X0077163Y0049751D01*
X0078114Y0048800D01*
X0077163Y0047849D01*
X0075262Y0047849D01*
X0075737Y0046851D02*
X0076212Y0046851D01*
X0076688Y0046375D01*
X0077163Y0046851D01*
X0077638Y0046851D01*
X0078114Y0046375D01*
X0078114Y0045425D01*
X0077638Y0044949D01*
X0076688Y0045900D02*
X0076688Y0046375D01*
X0075737Y0046851D02*
X0075262Y0046375D01*
X0075262Y0045425D01*
X0075737Y0044949D01*
X0077638Y0050749D02*
X0078114Y0051225D01*
X0078114Y0052175D01*
X0077638Y0052651D01*
X0026234Y0061960D02*
X0025759Y0061485D01*
X0024808Y0061485D01*
X0024333Y0061960D01*
X0024333Y0063861D01*
X0024808Y0064337D01*
X0025759Y0064337D01*
X0026234Y0063861D01*
X0023334Y0064337D02*
X0023334Y0061485D01*
X0021432Y0064337D01*
X0021432Y0061485D01*
X0020450Y0061485D02*
X0019499Y0061485D01*
X0019974Y0061485D02*
X0019974Y0064337D01*
X0019499Y0064337D02*
X0020450Y0064337D01*
X0019958Y0075264D02*
X0018532Y0075264D01*
X0018532Y0078116D01*
X0019958Y0078116D01*
X0020434Y0077641D01*
X0020434Y0075740D01*
X0019958Y0075264D01*
X0021432Y0075264D02*
X0023334Y0075264D01*
X0024333Y0075740D02*
X0024808Y0075264D01*
X0025759Y0075264D01*
X0026234Y0075740D01*
X0026234Y0077641D02*
X0025759Y0078116D01*
X0024808Y0078116D01*
X0024333Y0077641D01*
X0024333Y0075740D01*
X0022383Y0076690D02*
X0021432Y0076690D01*
X0021432Y0078116D02*
X0021432Y0075264D01*
X0021432Y0078116D02*
X0023334Y0078116D01*
X0005279Y0076325D02*
X0005279Y0074424D01*
X0005279Y0075375D02*
X0002427Y0075375D01*
X0003378Y0074424D01*
X0002902Y0073425D02*
X0003853Y0073425D01*
X0004328Y0072950D01*
X0004328Y0071524D01*
X0004328Y0072475D02*
X0005279Y0073425D01*
X0005279Y0071524D02*
X0002427Y0071524D01*
X0002427Y0072950D01*
X0002902Y0073425D01*
X0002902Y0068451D02*
X0002427Y0067976D01*
X0002427Y0067025D01*
X0002902Y0066550D01*
X0002902Y0065551D02*
X0002427Y0065076D01*
X0002427Y0063650D01*
X0005279Y0063650D01*
X0004328Y0063650D02*
X0004328Y0065076D01*
X0003853Y0065551D01*
X0002902Y0065551D01*
X0004328Y0064601D02*
X0005279Y0065551D01*
X0005279Y0066550D02*
X0003378Y0068451D01*
X0002902Y0068451D01*
X0005279Y0068451D02*
X0005279Y0066550D01*
D11*
X0023638Y0066453D03*
X0023638Y0072358D03*
D12*
X0065406Y0057673D02*
X0065406Y0047673D01*
X0065408Y0047613D01*
X0065413Y0047552D01*
X0065422Y0047493D01*
X0065435Y0047434D01*
X0065451Y0047375D01*
X0065471Y0047318D01*
X0065494Y0047263D01*
X0065521Y0047208D01*
X0065550Y0047156D01*
X0065583Y0047105D01*
X0065619Y0047056D01*
X0065657Y0047010D01*
X0065699Y0046966D01*
X0065743Y0046924D01*
X0065789Y0046886D01*
X0065838Y0046850D01*
X0065889Y0046817D01*
X0065941Y0046788D01*
X0065996Y0046761D01*
X0066051Y0046738D01*
X0066108Y0046718D01*
X0066167Y0046702D01*
X0066226Y0046689D01*
X0066285Y0046680D01*
X0066346Y0046675D01*
X0066406Y0046673D01*
X0072406Y0046673D01*
X0072466Y0046675D01*
X0072527Y0046680D01*
X0072586Y0046689D01*
X0072645Y0046702D01*
X0072704Y0046718D01*
X0072761Y0046738D01*
X0072816Y0046761D01*
X0072871Y0046788D01*
X0072923Y0046817D01*
X0072974Y0046850D01*
X0073023Y0046886D01*
X0073069Y0046924D01*
X0073113Y0046966D01*
X0073155Y0047010D01*
X0073193Y0047056D01*
X0073229Y0047105D01*
X0073262Y0047156D01*
X0073291Y0047208D01*
X0073318Y0047263D01*
X0073341Y0047318D01*
X0073361Y0047375D01*
X0073377Y0047434D01*
X0073390Y0047493D01*
X0073399Y0047552D01*
X0073404Y0047613D01*
X0073406Y0047673D01*
X0073406Y0057673D01*
X0073404Y0057733D01*
X0073399Y0057794D01*
X0073390Y0057853D01*
X0073377Y0057912D01*
X0073361Y0057971D01*
X0073341Y0058028D01*
X0073318Y0058083D01*
X0073291Y0058138D01*
X0073262Y0058190D01*
X0073229Y0058241D01*
X0073193Y0058290D01*
X0073155Y0058336D01*
X0073113Y0058380D01*
X0073069Y0058422D01*
X0073023Y0058460D01*
X0072974Y0058496D01*
X0072923Y0058529D01*
X0072871Y0058558D01*
X0072816Y0058585D01*
X0072761Y0058608D01*
X0072704Y0058628D01*
X0072645Y0058644D01*
X0072586Y0058657D01*
X0072527Y0058666D01*
X0072466Y0058671D01*
X0072406Y0058673D01*
X0066406Y0058673D01*
X0066346Y0058671D01*
X0066285Y0058666D01*
X0066226Y0058657D01*
X0066167Y0058644D01*
X0066108Y0058628D01*
X0066051Y0058608D01*
X0065996Y0058585D01*
X0065941Y0058558D01*
X0065889Y0058529D01*
X0065838Y0058496D01*
X0065789Y0058460D01*
X0065743Y0058422D01*
X0065699Y0058380D01*
X0065657Y0058336D01*
X0065619Y0058290D01*
X0065583Y0058241D01*
X0065550Y0058190D01*
X0065521Y0058138D01*
X0065494Y0058083D01*
X0065471Y0058028D01*
X0065451Y0057971D01*
X0065435Y0057912D01*
X0065422Y0057853D01*
X0065413Y0057794D01*
X0065408Y0057733D01*
X0065406Y0057673D01*
D13*
X0052732Y0052941D02*
X0028992Y0052941D01*
X0030016Y0048283D02*
X0030018Y0048361D01*
X0030024Y0048438D01*
X0030034Y0048515D01*
X0030047Y0048592D01*
X0030065Y0048668D01*
X0030086Y0048743D01*
X0030112Y0048816D01*
X0030140Y0048888D01*
X0030173Y0048959D01*
X0030209Y0049028D01*
X0030248Y0049095D01*
X0030291Y0049160D01*
X0030337Y0049223D01*
X0030386Y0049283D01*
X0030438Y0049341D01*
X0030493Y0049396D01*
X0030551Y0049448D01*
X0030611Y0049497D01*
X0030674Y0049543D01*
X0030739Y0049586D01*
X0030806Y0049625D01*
X0030875Y0049661D01*
X0030946Y0049694D01*
X0031018Y0049722D01*
X0031091Y0049748D01*
X0031166Y0049769D01*
X0031242Y0049787D01*
X0031319Y0049800D01*
X0031396Y0049810D01*
X0031473Y0049816D01*
X0031551Y0049818D01*
X0031629Y0049816D01*
X0031706Y0049810D01*
X0031783Y0049800D01*
X0031860Y0049787D01*
X0031936Y0049769D01*
X0032011Y0049748D01*
X0032084Y0049722D01*
X0032156Y0049694D01*
X0032227Y0049661D01*
X0032296Y0049625D01*
X0032363Y0049586D01*
X0032428Y0049543D01*
X0032491Y0049497D01*
X0032551Y0049448D01*
X0032609Y0049396D01*
X0032664Y0049341D01*
X0032716Y0049283D01*
X0032765Y0049223D01*
X0032811Y0049160D01*
X0032854Y0049095D01*
X0032893Y0049028D01*
X0032929Y0048959D01*
X0032962Y0048888D01*
X0032990Y0048816D01*
X0033016Y0048743D01*
X0033037Y0048668D01*
X0033055Y0048592D01*
X0033068Y0048515D01*
X0033078Y0048438D01*
X0033084Y0048361D01*
X0033086Y0048283D01*
X0033084Y0048205D01*
X0033078Y0048128D01*
X0033068Y0048051D01*
X0033055Y0047974D01*
X0033037Y0047898D01*
X0033016Y0047823D01*
X0032990Y0047750D01*
X0032962Y0047678D01*
X0032929Y0047607D01*
X0032893Y0047538D01*
X0032854Y0047471D01*
X0032811Y0047406D01*
X0032765Y0047343D01*
X0032716Y0047283D01*
X0032664Y0047225D01*
X0032609Y0047170D01*
X0032551Y0047118D01*
X0032491Y0047069D01*
X0032428Y0047023D01*
X0032363Y0046980D01*
X0032296Y0046941D01*
X0032227Y0046905D01*
X0032156Y0046872D01*
X0032084Y0046844D01*
X0032011Y0046818D01*
X0031936Y0046797D01*
X0031860Y0046779D01*
X0031783Y0046766D01*
X0031706Y0046756D01*
X0031629Y0046750D01*
X0031551Y0046748D01*
X0031473Y0046750D01*
X0031396Y0046756D01*
X0031319Y0046766D01*
X0031242Y0046779D01*
X0031166Y0046797D01*
X0031091Y0046818D01*
X0031018Y0046844D01*
X0030946Y0046872D01*
X0030875Y0046905D01*
X0030806Y0046941D01*
X0030739Y0046980D01*
X0030674Y0047023D01*
X0030611Y0047069D01*
X0030551Y0047118D01*
X0030493Y0047170D01*
X0030438Y0047225D01*
X0030386Y0047283D01*
X0030337Y0047343D01*
X0030291Y0047406D01*
X0030248Y0047471D01*
X0030209Y0047538D01*
X0030173Y0047607D01*
X0030140Y0047678D01*
X0030112Y0047750D01*
X0030086Y0047823D01*
X0030065Y0047898D01*
X0030047Y0047974D01*
X0030034Y0048051D01*
X0030024Y0048128D01*
X0030018Y0048205D01*
X0030016Y0048283D01*
X0028992Y0028783D02*
X0052732Y0028783D01*
X0063519Y0021378D02*
X0059984Y0017842D01*
X0059984Y0014307D01*
X0056448Y0014307D01*
X0052913Y0010771D01*
X0052913Y0007236D01*
X0056448Y0003700D01*
X0059984Y0003700D01*
X0063519Y0007236D01*
X0063519Y0010771D01*
X0067055Y0010771D01*
X0070590Y0014307D01*
X0070590Y0017842D01*
X0074126Y0017842D01*
X0077662Y0021378D01*
X0077662Y0024913D01*
X0074126Y0028449D01*
X0070590Y0028449D01*
X0067055Y0024913D01*
X0067055Y0021378D01*
X0063519Y0021378D01*
D14*
X0010941Y0021374D02*
X0002280Y0021374D01*
X0002280Y0060350D01*
X0010941Y0060350D01*
X0010941Y0057988D01*
X0014484Y0057988D01*
X0014484Y0060350D01*
X0019996Y0060350D01*
X0019996Y0048539D01*
X0017634Y0048539D01*
X0017634Y0057988D01*
X0014484Y0057988D01*
X0014484Y0060350D02*
X0010941Y0060350D01*
X0010941Y0057988D02*
X0004642Y0057988D01*
X0004642Y0023736D01*
X0010941Y0023736D01*
X0010941Y0021374D01*
X0014484Y0021374D01*
X0014484Y0023736D01*
X0017634Y0023736D01*
X0017634Y0033185D01*
X0019996Y0033185D01*
X0019996Y0048539D01*
X0019996Y0033185D02*
X0019996Y0021374D01*
X0014484Y0021374D01*
X0014484Y0023736D02*
X0010941Y0023736D01*
M02*
