G75*
%MOIN*%
%OFA0B0*%
%FSLAX25Y25*%
%IPPOS*%
%LPD*%
%AMOC8*
5,1,8,0,0,1.08239X$1,22.5*
%
%ADD10R,0.04534X0.04652*%
%ADD11R,0.03550X0.03550*%
%ADD12R,0.04337X0.04731*%
%ADD13R,0.05400X0.02900*%
%ADD14R,0.06030X0.02211*%
%ADD15OC8,0.07000*%
%ADD16C,0.07800*%
%ADD17C,0.13400*%
D10*
X0065961Y0042831D03*
X0072850Y0042831D03*
X0072850Y0062516D03*
X0065961Y0062516D03*
D11*
X0026098Y0066453D03*
X0020193Y0066453D03*
X0020193Y0072358D03*
X0026098Y0072358D03*
D12*
X0014681Y0073343D03*
X0007988Y0073343D03*
X0007988Y0065469D03*
X0014681Y0065469D03*
X0066059Y0034957D03*
X0072752Y0034957D03*
D13*
X0069406Y0049473D03*
X0069406Y0052673D03*
X0069406Y0055873D03*
D14*
X0055803Y0049819D03*
X0055803Y0047260D03*
X0055803Y0044701D03*
X0055803Y0042142D03*
X0055803Y0039583D03*
X0055803Y0037024D03*
X0055803Y0034465D03*
X0055803Y0031906D03*
X0025921Y0031906D03*
X0025921Y0034465D03*
X0025921Y0037024D03*
X0025921Y0039583D03*
X0025921Y0042142D03*
X0025921Y0044701D03*
X0025921Y0047260D03*
X0025921Y0049819D03*
D15*
X0013303Y0029051D03*
X0013303Y0036925D03*
X0013303Y0044799D03*
X0013303Y0052673D03*
D16*
X0058216Y0009004D03*
X0065287Y0016075D03*
X0072358Y0023146D03*
D17*
X0040862Y0015272D03*
X0040862Y0066453D03*
M02*
