G75*
%MOIN*%
%OFA0B0*%
%FSLAX25Y25*%
%IPPOS*%
%LPD*%
%AMOC8*
5,1,8,0,0,1.08239X$1,22.5*
%
%ADD10OC8,0.06600*%
%ADD11C,0.07400*%
%ADD12C,0.00984*%
%ADD13C,0.03169*%
%ADD14C,0.02953*%
D10*
X0013303Y0029051D03*
X0013303Y0036925D03*
X0013303Y0044799D03*
X0013303Y0052673D03*
D11*
X0058216Y0009004D03*
X0065287Y0016075D03*
X0072358Y0023146D03*
D12*
X0055706Y0004440D02*
X0004233Y0004440D01*
X0003728Y0004946D02*
X0004946Y0003728D01*
X0006537Y0003069D01*
X0007398Y0002984D01*
X0074327Y0002984D01*
X0075188Y0003069D01*
X0076779Y0003728D01*
X0077996Y0004946D01*
X0078655Y0006537D01*
X0078740Y0007398D01*
X0078740Y0074327D01*
X0078655Y0075188D01*
X0077996Y0076779D01*
X0076779Y0077996D01*
X0075188Y0078655D01*
X0074327Y0078740D01*
X0007398Y0078740D01*
X0006537Y0078655D01*
X0004946Y0077996D01*
X0003728Y0076779D01*
X0003069Y0075188D01*
X0002984Y0074327D01*
X0002984Y0007398D01*
X0003069Y0006537D01*
X0003728Y0004946D01*
X0003530Y0005423D02*
X0054476Y0005423D01*
X0053828Y0006071D02*
X0055284Y0004615D01*
X0057186Y0003827D01*
X0059246Y0003827D01*
X0061148Y0004615D01*
X0062604Y0006071D01*
X0063392Y0007974D01*
X0063392Y0010033D01*
X0062781Y0011510D01*
X0064258Y0010898D01*
X0066317Y0010898D01*
X0068219Y0011686D01*
X0069676Y0013142D01*
X0070464Y0015045D01*
X0070464Y0017104D01*
X0069852Y0018581D01*
X0071329Y0017969D01*
X0073388Y0017969D01*
X0075290Y0018757D01*
X0076747Y0020213D01*
X0077535Y0022116D01*
X0077535Y0024175D01*
X0076747Y0026078D01*
X0075290Y0027534D01*
X0073388Y0028322D01*
X0071329Y0028322D01*
X0069426Y0027534D01*
X0067970Y0026078D01*
X0067182Y0024175D01*
X0067182Y0022116D01*
X0067794Y0020639D01*
X0066317Y0021251D01*
X0064258Y0021251D01*
X0062355Y0020463D01*
X0060899Y0019007D01*
X0060111Y0017104D01*
X0060111Y0015045D01*
X0060723Y0013568D01*
X0059246Y0014180D01*
X0057186Y0014180D01*
X0055284Y0013392D01*
X0053828Y0011936D01*
X0053040Y0010033D01*
X0053040Y0007974D01*
X0053828Y0006071D01*
X0053689Y0006406D02*
X0043334Y0006406D01*
X0042480Y0006095D02*
X0045521Y0007202D01*
X0045521Y0007202D01*
X0048000Y0009282D01*
X0048000Y0009282D01*
X0049618Y0012085D01*
X0050180Y0015272D01*
X0049618Y0018459D01*
X0048000Y0021261D01*
X0048000Y0021261D01*
X0045521Y0023341D01*
X0042480Y0024448D01*
X0039244Y0024448D01*
X0036203Y0023341D01*
X0033724Y0021261D01*
X0032106Y0018459D01*
X0032106Y0018459D01*
X0031544Y0015272D01*
X0031544Y0015272D01*
X0032106Y0012085D01*
X0032106Y0012085D01*
X0033724Y0009282D01*
X0036203Y0007202D01*
X0036203Y0007202D01*
X0039244Y0006095D01*
X0041639Y0006095D01*
X0042480Y0006095D01*
X0042480Y0006095D01*
X0045744Y0007389D02*
X0053282Y0007389D01*
X0053040Y0008371D02*
X0046915Y0008371D01*
X0048000Y0009282D02*
X0048000Y0009282D01*
X0048042Y0009354D02*
X0053040Y0009354D01*
X0053166Y0010337D02*
X0048609Y0010337D01*
X0049177Y0011320D02*
X0053573Y0011320D01*
X0054195Y0012303D02*
X0049657Y0012303D01*
X0049618Y0012085D02*
X0049618Y0012085D01*
X0049830Y0013285D02*
X0055177Y0013285D01*
X0050003Y0014268D02*
X0060433Y0014268D01*
X0060111Y0015251D02*
X0050176Y0015251D01*
X0050180Y0015272D02*
X0050180Y0015272D01*
X0050011Y0016234D02*
X0060111Y0016234D01*
X0060157Y0017216D02*
X0049837Y0017216D01*
X0049664Y0018199D02*
X0060564Y0018199D01*
X0061074Y0019182D02*
X0049201Y0019182D01*
X0049618Y0018459D02*
X0049618Y0018459D01*
X0048633Y0020165D02*
X0062057Y0020165D01*
X0064008Y0021147D02*
X0048066Y0021147D01*
X0046964Y0022130D02*
X0067182Y0022130D01*
X0067583Y0021147D02*
X0066567Y0021147D01*
X0067182Y0023113D02*
X0045793Y0023113D01*
X0045521Y0023341D02*
X0045521Y0023341D01*
X0043448Y0024096D02*
X0067182Y0024096D01*
X0067556Y0025078D02*
X0016085Y0025078D01*
X0015282Y0024275D02*
X0018080Y0027073D01*
X0018080Y0031030D01*
X0016121Y0032988D01*
X0018080Y0034947D01*
X0018080Y0038904D01*
X0016121Y0040862D01*
X0018080Y0042821D01*
X0018080Y0046778D01*
X0015282Y0049576D01*
X0011325Y0049576D01*
X0008527Y0046778D01*
X0008527Y0042821D01*
X0010485Y0040862D01*
X0008527Y0038904D01*
X0008527Y0034947D01*
X0010485Y0032988D01*
X0008527Y0031030D01*
X0008527Y0027073D01*
X0011325Y0024275D01*
X0015282Y0024275D01*
X0017068Y0026061D02*
X0067963Y0026061D01*
X0068936Y0027044D02*
X0018051Y0027044D01*
X0018080Y0028027D02*
X0070616Y0028027D01*
X0074101Y0028027D02*
X0078740Y0028027D01*
X0078740Y0029009D02*
X0018080Y0029009D01*
X0018080Y0029992D02*
X0078740Y0029992D01*
X0078740Y0030975D02*
X0018080Y0030975D01*
X0017151Y0031958D02*
X0078740Y0031958D01*
X0078740Y0032941D02*
X0016169Y0032941D01*
X0017056Y0033923D02*
X0078740Y0033923D01*
X0078740Y0034906D02*
X0018039Y0034906D01*
X0018080Y0035889D02*
X0078740Y0035889D01*
X0078740Y0036872D02*
X0018080Y0036872D01*
X0018080Y0037854D02*
X0078740Y0037854D01*
X0078740Y0038837D02*
X0018080Y0038837D01*
X0017163Y0039820D02*
X0078740Y0039820D01*
X0078740Y0040803D02*
X0016180Y0040803D01*
X0017044Y0041785D02*
X0078740Y0041785D01*
X0078740Y0042768D02*
X0034691Y0042768D01*
X0034581Y0042723D02*
X0035706Y0043189D01*
X0036567Y0044050D01*
X0037033Y0045175D01*
X0037033Y0046392D01*
X0036567Y0047517D01*
X0035706Y0048378D01*
X0035446Y0048486D01*
X0035092Y0048840D01*
X0035706Y0049094D01*
X0036567Y0049955D01*
X0037033Y0051080D01*
X0037033Y0052298D01*
X0036567Y0053423D01*
X0035706Y0054284D01*
X0035446Y0054391D01*
X0031020Y0058818D01*
X0031020Y0061647D01*
X0031128Y0061907D01*
X0031128Y0063125D01*
X0030662Y0064249D01*
X0029801Y0065110D01*
X0028676Y0065576D01*
X0027458Y0065576D01*
X0027083Y0065421D01*
X0027083Y0067198D01*
X0031509Y0071624D01*
X0031769Y0071732D01*
X0032630Y0072593D01*
X0033096Y0073718D01*
X0033096Y0074936D01*
X0032630Y0076060D01*
X0031769Y0076921D01*
X0030644Y0077387D01*
X0029427Y0077387D01*
X0028302Y0076921D01*
X0027441Y0076060D01*
X0027333Y0075800D01*
X0022457Y0070924D01*
X0021627Y0070094D01*
X0021177Y0069009D01*
X0021177Y0055039D01*
X0021627Y0053953D01*
X0031270Y0044310D01*
X0031378Y0044050D01*
X0032239Y0043189D01*
X0033364Y0042723D01*
X0034581Y0042723D01*
X0033254Y0042768D02*
X0018027Y0042768D01*
X0018080Y0043751D02*
X0031677Y0043751D01*
X0030846Y0044734D02*
X0018080Y0044734D01*
X0018080Y0045716D02*
X0029864Y0045716D01*
X0028881Y0046699D02*
X0018080Y0046699D01*
X0017175Y0047682D02*
X0027898Y0047682D01*
X0026915Y0048665D02*
X0016192Y0048665D01*
X0021375Y0054561D02*
X0002984Y0054561D01*
X0002984Y0053579D02*
X0022001Y0053579D01*
X0022984Y0052596D02*
X0002984Y0052596D01*
X0002984Y0051613D02*
X0023967Y0051613D01*
X0024950Y0050630D02*
X0002984Y0050630D01*
X0002984Y0049648D02*
X0025933Y0049648D01*
X0021177Y0055544D02*
X0002984Y0055544D01*
X0002984Y0056527D02*
X0021177Y0056527D01*
X0021177Y0057510D02*
X0002984Y0057510D01*
X0002984Y0058492D02*
X0021177Y0058492D01*
X0021177Y0059475D02*
X0002984Y0059475D01*
X0002984Y0060458D02*
X0021177Y0060458D01*
X0021177Y0061441D02*
X0002984Y0061441D01*
X0002984Y0062423D02*
X0021177Y0062423D01*
X0021177Y0063406D02*
X0002984Y0063406D01*
X0002984Y0064389D02*
X0021177Y0064389D01*
X0021177Y0065372D02*
X0002984Y0065372D01*
X0002984Y0066355D02*
X0021177Y0066355D01*
X0021177Y0067337D02*
X0002984Y0067337D01*
X0002984Y0068320D02*
X0021177Y0068320D01*
X0021299Y0069303D02*
X0002984Y0069303D01*
X0002984Y0070286D02*
X0021818Y0070286D01*
X0022801Y0071268D02*
X0002984Y0071268D01*
X0002984Y0072251D02*
X0023784Y0072251D01*
X0024767Y0073234D02*
X0002984Y0073234D01*
X0002984Y0074217D02*
X0025749Y0074217D01*
X0026732Y0075199D02*
X0003074Y0075199D01*
X0003481Y0076182D02*
X0027562Y0076182D01*
X0028890Y0077165D02*
X0004114Y0077165D01*
X0005311Y0078148D02*
X0076413Y0078148D01*
X0077610Y0077165D02*
X0031181Y0077165D01*
X0032508Y0076182D02*
X0078243Y0076182D01*
X0078651Y0075199D02*
X0043661Y0075199D01*
X0042480Y0075629D02*
X0039244Y0075629D01*
X0036203Y0074522D01*
X0033724Y0072442D01*
X0032106Y0069640D01*
X0032106Y0069640D01*
X0031544Y0066453D01*
X0031544Y0066453D01*
X0032106Y0063266D01*
X0032106Y0063266D01*
X0033724Y0060463D01*
X0036203Y0058383D01*
X0036203Y0058383D01*
X0039244Y0057276D01*
X0040085Y0057276D01*
X0042480Y0057276D01*
X0045521Y0058383D01*
X0045521Y0058383D01*
X0048000Y0060463D01*
X0048000Y0060463D01*
X0048000Y0060463D01*
X0049618Y0063266D01*
X0050180Y0066453D01*
X0049618Y0069640D01*
X0048000Y0072442D01*
X0048000Y0072442D01*
X0045521Y0074522D01*
X0042480Y0075629D01*
X0045521Y0074522D02*
X0045521Y0074522D01*
X0045886Y0074217D02*
X0078740Y0074217D01*
X0078740Y0073234D02*
X0047057Y0073234D01*
X0048110Y0072251D02*
X0078740Y0072251D01*
X0078740Y0071268D02*
X0048678Y0071268D01*
X0049245Y0070286D02*
X0078740Y0070286D01*
X0078740Y0069303D02*
X0049678Y0069303D01*
X0049618Y0069640D02*
X0049618Y0069640D01*
X0049851Y0068320D02*
X0078740Y0068320D01*
X0078740Y0067337D02*
X0050024Y0067337D01*
X0050180Y0066453D02*
X0050180Y0066453D01*
X0050163Y0066355D02*
X0078740Y0066355D01*
X0078740Y0065372D02*
X0049990Y0065372D01*
X0049816Y0064389D02*
X0078740Y0064389D01*
X0078740Y0063406D02*
X0049643Y0063406D01*
X0049618Y0063266D02*
X0049618Y0063266D01*
X0049132Y0062423D02*
X0078740Y0062423D01*
X0078740Y0061441D02*
X0048564Y0061441D01*
X0047994Y0060458D02*
X0078740Y0060458D01*
X0078740Y0059475D02*
X0046823Y0059475D01*
X0045651Y0058492D02*
X0078740Y0058492D01*
X0078740Y0057510D02*
X0043121Y0057510D01*
X0038603Y0057510D02*
X0032328Y0057510D01*
X0033310Y0056527D02*
X0078740Y0056527D01*
X0078740Y0055544D02*
X0034293Y0055544D01*
X0035276Y0054561D02*
X0078740Y0054561D01*
X0078740Y0053579D02*
X0036411Y0053579D01*
X0036910Y0052596D02*
X0078740Y0052596D01*
X0078740Y0051613D02*
X0037033Y0051613D01*
X0036847Y0050630D02*
X0078740Y0050630D01*
X0078740Y0049648D02*
X0036259Y0049648D01*
X0035267Y0048665D02*
X0078740Y0048665D01*
X0078740Y0047682D02*
X0036402Y0047682D01*
X0036906Y0046699D02*
X0078740Y0046699D01*
X0078740Y0045716D02*
X0037033Y0045716D01*
X0036850Y0044734D02*
X0078740Y0044734D01*
X0078740Y0043751D02*
X0036268Y0043751D01*
X0036073Y0058492D02*
X0031345Y0058492D01*
X0031020Y0059475D02*
X0034902Y0059475D01*
X0033731Y0060458D02*
X0031020Y0060458D01*
X0031020Y0061441D02*
X0033160Y0061441D01*
X0033724Y0060463D02*
X0033724Y0060463D01*
X0032593Y0062423D02*
X0031128Y0062423D01*
X0031011Y0063406D02*
X0032081Y0063406D01*
X0031908Y0064389D02*
X0030522Y0064389D01*
X0031735Y0065372D02*
X0029170Y0065372D01*
X0027083Y0066355D02*
X0031562Y0066355D01*
X0031700Y0067337D02*
X0027222Y0067337D01*
X0028205Y0068320D02*
X0031874Y0068320D01*
X0032047Y0069303D02*
X0029187Y0069303D01*
X0030170Y0070286D02*
X0032479Y0070286D01*
X0033047Y0071268D02*
X0031153Y0071268D01*
X0032288Y0072251D02*
X0033614Y0072251D01*
X0033724Y0072442D02*
X0033724Y0072442D01*
X0033724Y0072442D01*
X0032896Y0073234D02*
X0034668Y0073234D01*
X0035839Y0074217D02*
X0033096Y0074217D01*
X0032987Y0075199D02*
X0038063Y0075199D01*
X0036203Y0074522D02*
X0036203Y0074522D01*
X0010414Y0048665D02*
X0002984Y0048665D01*
X0002984Y0047682D02*
X0009431Y0047682D01*
X0008527Y0046699D02*
X0002984Y0046699D01*
X0002984Y0045716D02*
X0008527Y0045716D01*
X0008527Y0044734D02*
X0002984Y0044734D01*
X0002984Y0043751D02*
X0008527Y0043751D01*
X0008579Y0042768D02*
X0002984Y0042768D01*
X0002984Y0041785D02*
X0009562Y0041785D01*
X0010426Y0040803D02*
X0002984Y0040803D01*
X0002984Y0039820D02*
X0009443Y0039820D01*
X0008527Y0038837D02*
X0002984Y0038837D01*
X0002984Y0037854D02*
X0008527Y0037854D01*
X0008527Y0036872D02*
X0002984Y0036872D01*
X0002984Y0035889D02*
X0008527Y0035889D01*
X0008567Y0034906D02*
X0002984Y0034906D01*
X0002984Y0033923D02*
X0009550Y0033923D01*
X0010438Y0032941D02*
X0002984Y0032941D01*
X0002984Y0031958D02*
X0009455Y0031958D01*
X0008527Y0030975D02*
X0002984Y0030975D01*
X0002984Y0029992D02*
X0008527Y0029992D01*
X0008527Y0029009D02*
X0002984Y0029009D01*
X0002984Y0028027D02*
X0008527Y0028027D01*
X0008556Y0027044D02*
X0002984Y0027044D01*
X0002984Y0026061D02*
X0009538Y0026061D01*
X0010521Y0025078D02*
X0002984Y0025078D01*
X0002984Y0024096D02*
X0038276Y0024096D01*
X0036203Y0023341D02*
X0036203Y0023341D01*
X0035931Y0023113D02*
X0002984Y0023113D01*
X0002984Y0022130D02*
X0034760Y0022130D01*
X0033724Y0021261D02*
X0033724Y0021261D01*
X0033724Y0021261D01*
X0033659Y0021147D02*
X0002984Y0021147D01*
X0002984Y0020165D02*
X0033091Y0020165D01*
X0032524Y0019182D02*
X0002984Y0019182D01*
X0002984Y0018199D02*
X0032060Y0018199D01*
X0031887Y0017216D02*
X0002984Y0017216D01*
X0002984Y0016234D02*
X0031714Y0016234D01*
X0031548Y0015251D02*
X0002984Y0015251D01*
X0002984Y0014268D02*
X0031721Y0014268D01*
X0031895Y0013285D02*
X0002984Y0013285D01*
X0002984Y0012303D02*
X0032068Y0012303D01*
X0032548Y0011320D02*
X0002984Y0011320D01*
X0002984Y0010337D02*
X0033115Y0010337D01*
X0033683Y0009354D02*
X0002984Y0009354D01*
X0002984Y0008371D02*
X0034810Y0008371D01*
X0035981Y0007389D02*
X0002985Y0007389D01*
X0003123Y0006406D02*
X0038391Y0006406D01*
X0033724Y0009282D02*
X0033724Y0009282D01*
X0060726Y0004440D02*
X0077491Y0004440D01*
X0078194Y0005423D02*
X0061956Y0005423D01*
X0062743Y0006406D02*
X0078601Y0006406D01*
X0078739Y0007389D02*
X0063150Y0007389D01*
X0063392Y0008371D02*
X0078740Y0008371D01*
X0078740Y0009354D02*
X0063392Y0009354D01*
X0063267Y0010337D02*
X0078740Y0010337D01*
X0078740Y0011320D02*
X0067335Y0011320D01*
X0068836Y0012303D02*
X0078740Y0012303D01*
X0078740Y0013285D02*
X0069735Y0013285D01*
X0070142Y0014268D02*
X0078740Y0014268D01*
X0078740Y0015251D02*
X0070464Y0015251D01*
X0070464Y0016234D02*
X0078740Y0016234D01*
X0078740Y0017216D02*
X0070417Y0017216D01*
X0070774Y0018199D02*
X0070010Y0018199D01*
X0073943Y0018199D02*
X0078740Y0018199D01*
X0078740Y0019182D02*
X0075715Y0019182D01*
X0076698Y0020165D02*
X0078740Y0020165D01*
X0078740Y0021147D02*
X0077133Y0021147D01*
X0077535Y0022130D02*
X0078740Y0022130D01*
X0078740Y0023113D02*
X0077535Y0023113D01*
X0077535Y0024096D02*
X0078740Y0024096D01*
X0078740Y0025078D02*
X0077161Y0025078D01*
X0076753Y0026061D02*
X0078740Y0026061D01*
X0078740Y0027044D02*
X0075780Y0027044D01*
X0063240Y0011320D02*
X0062860Y0011320D01*
X0076126Y0003458D02*
X0005598Y0003458D01*
D13*
X0033972Y0045783D03*
X0033972Y0051689D03*
X0028067Y0062516D03*
X0030035Y0074327D03*
D14*
X0024130Y0068421D01*
X0024130Y0055626D01*
X0033972Y0045783D01*
X0033972Y0051689D02*
X0028067Y0057594D01*
X0028067Y0062516D01*
M02*
